<mxfile host="app.diagrams.net" modified="2024-02-22T12:30:35.035Z" agent="Mozilla/5.0 (X11; Linux x86_64) AppleWebKit/537.36 (KHTML, like Gecko) Chrome/121.0.0.0 Safari/537.36" version="22.1.21" etag="6PrQcMXZ3py7XyfuC_Ig" type="github">
  <diagram name="Page-1" id="iZGA-b1mEWdVqaiLBfJa">
    <mxGraphModel>
      <root>
        <mxCell id="0" />
        <mxCell id="1" parent="0" />
      </root>
    </mxGraphModel>
  </diagram>
</mxfile>
